<svg xmlns="http://www.w3.org/2000/svg" viewBox="0 0 520.33 49">
    <title>
        Arrow-1
    </title>
    <path d="M520.33,49H71.17a24.5,24.5,0,1,1,24.5-24.5H91A19.84,19.84,0,1,0,71.17,44.33H520.33Z" style="fill:#8E5644"/>
    <circle cx="84.75" cy="24.5" r="8.58" style="fill:#8E5644"/>
    <path d="M84.75,35.41A10.91,10.91,0,1,1,95.67,24.5,10.92,10.92,0,0,1,84.75,35.41Zm0-17.16A6.25,6.25,0,1,0,91,24.5,6.27,6.27,0,0,0,84.75,18.25Z" style="fill:#8E5644"/>
    <rect width="67.1" height="4.67" x="29.73" y="44.33" style="fill:#8E5644"/>
    <path d="M61.51,49H0L36.7,22.17S39.68,45,61.51,49Z" style="fill:#8E5644"/>
</svg>
