<svg xmlns="http://www.w3.org/2000/svg" viewBox="0 0 520.33 49">
    <title>
        Arrow-2
    </title>
    <path d="M0,49H449.17a24.5,24.5,0,1,0-24.5-24.5h4.66a19.84,19.84,0,1,1,19.84,19.83H0Z" style="fill:#8E5644"/>
    <circle cx="435.58" cy="24.5" r="8.58" style="fill:#8E5644"/>
    <path d="M424.67,24.5a10.92,10.92,0,1,1,10.91,10.91A10.92,10.92,0,0,1,424.67,24.5Zm4.66,0a6.25,6.25,0,1,0,6.25-6.25A6.27,6.27,0,0,0,429.33,24.5Z" style="fill:#8E5644"/>
    <rect width="67.1" height="4.67" x="423.5" y="44.33" style="fill:#8E5644"/>
    <path d="M458.83,49h61.5l-36.7-26.78S480.65,45,458.83,49Z" style="fill:#8E5644"/>
</svg>
