<svg xmlns="http://www.w3.org/2000/svg" viewBox="0 0 1919.539 1279.437">
  <defs>
    <style>
      .cls-1 {
        fill: #b7795e;
      }

      .cls-2 {
        fill: #aa6a53;
      }

      .cls-3 {
        fill: #a0604a;
      }

      .cls-4 {
        fill: #c1826c;
      }
    </style>
  </defs>
  <g id="Background" transform="translate(0 0)">
    <rect id="Rectangle_1" data-name="Rectangle 1" class="cls-1" width="1919.155" height="1279.436" transform="translate(0.192 0)"/>
    <g id="Group_1" data-name="Group 1">
      <path id="Path_1" data-name="Path 1" class="cls-2" d="M1066.538,1430.766c-5.438-4.606-14.969-3.966-21.623-4.734-9.66-1.087-19.383-2.175-29.043-3.2-37.679-4.094-75.359-8-113.1-11.067a1750.863,1750.863,0,0,0-227.356-3.391c-75.167,3.774-150.59,9.66-225.885,3.966-37.3-2.815-74.335-9.212-111.823-8.956-37.487.32-74.527,6.909-112.015,7.357-69.6.9-140.546-18.744-209.124,1.343-5.63,1.663-11.131,3.583-16.569,5.758v8.316c53.928-23.286,116.685-14.586,173.939-9.98,18.3,1.471,36.656,2.559,55.016,2.175,17.784-.384,35.5-2.111,53.225-3.774,18.424-1.727,36.912-3.455,55.464-3.583s36.976,1.344,55.4,3.262c36.208,3.71,72.16,7.421,108.624,7.933,36.4.512,72.736-.9,109.072-2.751,73.824-3.774,147.327-7.869,221.279-4.542,74.079,3.326,148.223,10.683,221.79,19.767,4.286.512,9.212.7,9.4,6.077a9.677,9.677,0,0,1-4.158,7.868c-6.589,4.862-16.633,4.478-24.437,5.246q-27.732,2.687-55.528,4.542c-13.69.959-27.444,1.727-41.134,2.367a69.919,69.919,0,0,0,19.319-12.219,3.857,3.857,0,0,0,.576-4.67c-6.909-10.619-20.535-9.852-31.73-9.98-16.377-.256-32.754-.448-49.13-.7q-49.61-.672-99.284-1.407l-198.5-2.879-198.5-2.879c-65.571-.959-131.142-2.559-196.649-1.983-61.6.7-123.274,3.838-184.047,13.69v7.741c116.365-19.128,235.608-13.69,353.06-12.027l360.865,5.182a3.874,3.874,0,0,0,1.6.9,766.691,766.691,0,0,0,105.106,22.582c2.367.32,4.8.64,7.165.96q-89.241-.672-178.225-9.34c-36.272-3.519-72.288-8.764-108.5-12.6-36.976-3.966-73.823-4.414-110.991-2.943C286.658,1443.944,143.361,1451.429,0,1458.146v7.677q80.221-3.742,160.377-7.421,114.765-5.373,229.531-10.683c37.424-1.727,74.911-3.966,112.4-2.047s74.655,7.74,111.887,12.027a2001.31,2001.31,0,0,0,225.693,13.178q56.807.1,113.614-3.071,27.828-1.535,55.592-3.838c9.6-.832,19.255-1.663,28.851-2.623,6.973-.7,14.458-.959,20.983-3.774C1068.521,1453.348,1076.39,1439.082,1066.538,1430.766Zm-192.3,29.3a744.966,744.966,0,0,1-100.82-14.01c-10.172-2.111-20.215-4.478-30.259-7.037l107.217,1.535,55.016.768c9.148.128,18.36.192,27.508.384,5.246.128,11.9.256,16.121,3.774C928.359,1461.984,899.38,1461.792,874.239,1460.065Z" transform="translate(0.192 -505.477)"/>
      <path id="Path_2" data-name="Path 2" class="cls-2" d="M2375.1,1472.749c-45.292-5.31-90.264-12.539-135.365-19.384-44.076-6.653-88.473-12.474-133.189-12.666a438.726,438.726,0,0,0-66.019,4.542c-20.791,3.071-42.349,7.293-61.6,16.057a85.922,85.922,0,0,0-13.562,7.677,3.919,3.919,0,0,0,0,6.653c50.026,28.467,106.065-5.182,155.579-16.569,16.249-3.71,33.01-5.374,49.45-2.047a4.072,4.072,0,0,0,4.8-4.478q25.812,2.783,51.433,6.653c44.588,6.525,88.985,14.01,133.7,19.511q68.227,8.444,136.9,12.794,64.58,4.126,129.288,4.606v-7.677q-56.615-.48-113.166-3.646C2467.218,1482.153,2421.03,1478.186,2375.1,1472.749Zm-364.7,6.077c-12.219.128-24.245-1.855-35.312-6.845,16.185-9.276,35.313-13.434,53.48-16.888a397.646,397.646,0,0,1,65.7-6.525c12.6-.256,25.2,0,37.808.576C2091.255,1455.412,2052.488,1478.378,2010.395,1478.826Z" transform="translate(-707.225 -519.057)"/>
      <path id="Path_3" data-name="Path 3" class="cls-2" d="M1543.384,385.091c-130.374-12.155-261.453-8.252-392.147-6.653q-400.144,4.99-800.351,9.98Q175.475,390.721,0,393.536v7.677c234.585-3.966,469.233-6.589,703.818-9.532l402.7-4.99c132.358-1.663,265.355-6.717,397.521,2.815,138.051,9.98,276.934,38.127,415.177,17.784v-7.741C1794.218,418.293,1668.065,396.67,1543.384,385.091Z" transform="translate(0.192 -135.665)"/>
      <path id="Path_4" data-name="Path 4" class="cls-2" d="M1716,1140.016c-65-1.919-130.438-3.263-195.114-10.108-31.986-3.39-63.908-8.892-94.678-18.552-29.3-9.212-56.807-24.373-87-30.515-27.06-5.5-52.073-.512-76.638,11.387-26.356,12.794-50.346,28.915-78.813,37.04-30.195,8.636-61.8,10.747-93.079,11.771-32.818,1.087-65.635,1.407-98.517,1.663-66.595.448-133.189-.384-199.784-1.471-132.486-2.239-264.971-5.949-397.521-4.222-131.014,1.663-262.093,8.7-391.827,27.572-1.088.128-2.111.32-3.2.448v7.74c116.173-17.08,233.625-24.629,351.013-27.316,132.422-3.007,264.907.192,397.329,2.623,65.955,1.215,131.91,2.3,197.929,2.431q49.9.1,99.8-.7c30.77-.512,61.8-.7,92.375-4.158,2.879-.32,5.694-.7,8.572-1.087-24.117,6.4-48.363,11.451-73.376,14.2-31.538,3.519-63.332,4.478-95.062,5.118q-100.468,2.111-201,3.9-199.688,3.838-399.312,7.741-189.133,3.646-378.265,7.357v7.677q164.184-3.167,328.3-6.4,199.688-3.838,399.312-7.74,99.8-1.919,199.656-3.9c63.524-1.216,128.008-.32,190.508-12.922,30.643-6.205,60.07-16.825,90.328-24.565a285.483,285.483,0,0,1,96.022-7.933c53.992,4.542,106.321,20.023,159.29,31.09q-22.07-3.071-44.268-6.013c-29.555-3.9-59.366-6.653-89.241-4.99-27,1.535-53.672,6.205-80.093,11.515-28.6,5.758-57.063,12.155-85.914,16.377-28.915,4.286-58.086,6.845-87.258,8.444-58.47,3.326-117.132,3.326-175.731,4.158q-89.337,1.344-178.737,2.623-178.769,2.591-357.475,5.246L-.3,1200.917v7.677q337.483-4.99,674.9-9.916c118.54-1.727,237.208-2.047,355.683-5.565,57.063-1.663,114-5.757,170.1-16.633,55.975-10.811,110.991-24.629,168.5-21.623,34.417,1.791,68.45,7.485,102.483,12.475q48.363,7.1,96.661,14.266,93.847,13.818,187.757,27.636c-19.767,11.643-43.565,13.5-66.275,13.434-28.915-.064-57.895-1.535-86.81-2.175q-89.337-2.015-178.673-2.687c-120.075-1.087-240.214-1.343-360.289-1.919-240.086-1.087-480.236-3.774-720.259-1.727C229.1,1215.247,114.4,1217.678-.108,1222.8v7.677c101.2-4.542,202.471-6.973,303.8-8.125,121.419-1.407,242.837-1.023,364.256-.511q182.608.767,365.215,1.663c121.291.576,242.581.9,363.808,1.791,60.773.448,121.546,1.151,182.32,2.431q45.58.96,91.16,2.3c23.542.7,47.979,1.407,70.689-5.694a88.969,88.969,0,0,0,27.892-14.649c2.175-1.663,1.024-6.013-1.663-6.4-65.955-9.724-131.91-19.959-197.929-29.747,102.675,9.34,206.309,4.926,309.112-1.28,13.562-.832,27.06-1.663,40.622-2.559v-7.677c-126.217,8.061-253.393,15.737-379.353.768-64.867-7.677-127.112-25.781-191.276-37.3-30.131-5.374-60.9-8.7-91.544-6.461a270.693,270.693,0,0,0-40.686,6.4c1.407-.64,2.815-1.279,4.222-1.983,25.589-12.538,49.706-30.45,78.174-35.888,31.474-5.949,61.733,6.717,90.392,18.232a437.159,437.159,0,0,0,89.625,26.036c62.053,10.811,125.9,11.9,188.717,14.266q100.372,3.839,200.872,4.158c16.888.064,33.841.064,50.729-.064h.192v-7.677h-.192Q1817.331,1142.991,1716,1140.016Z" transform="translate(0.3 -388.603)"/>
      <path id="Path_5" data-name="Path 5" class="cls-2" d="M1319.547,1566.872c-62.82-14.394-125-42.605-190.764-38.319-31.41,2.047-60.325,13.114-88.473,26.549-29.747,14.2-58.918,28.723-90.2,39.407-61.029,20.919-125.257,31.09-189.549,34.161-135.812,6.589-270.025-17.848-403.79-37.743-68.13-10.108-136.58-19.128-205.477-22.134-49.9-2.175-101.843-2.815-151.293,7.165v8c37.232-7.549,75.935-8.892,113.742-8.508,70.241.7,140.162,8.508,209.572,18.3,131.91,18.68,263.564,44.588,397.329,43.693,62.82-.448,125.9-6.653,186.862-22.262a571.154,571.154,0,0,0,87.45-30c29.555-12.986,57.639-29.555,88.409-39.854,66.594-22.262,133.189,1.024,197.673,19.32,66.083,18.744,132.55,24.053,201.063,22.07,70.3-2.047,140.61-6.973,210.851-10.747q107.569-5.758,215.073-11.579c3.711-.192,7.485-.384,11.195-.576v-7.677c-129.927,7.037-259.917,14.266-389.844,20.919C1459.325,1580.754,1388.316,1582.673,1319.547,1566.872Z" transform="translate(0.192 -550.552)"/>
      <path id="Path_6" data-name="Path 6" class="cls-2" d="M1580.1,1797.6c-62.692,8-124.681,20.919-187.374,28.6-64.356,7.869-128.391,7.229-192.875,1.471-65.187-5.821-130.119-14.01-195.178-20.663Q905.937,1796.828,807,1788.256q-195.85-17.081-392.211-28.276-196.329-11.227-392.851-16.5c-7.293-.192-14.586-.384-21.942-.576v7.677q379.513,9.6,758,41.134c129.287,10.811,258.318,23.926,387.285,38.063,64.611,7.1,129.671,13.114,194.73,9.02,62.181-3.838,123.466-15.609,184.943-25.525,71.328-11.451,142.337-18.424,214.561-12.6,60.581,4.862,120.267,16.313,179.7,28.723v-7.741c-49.45-10.3-99.029-19.831-149.246-25.589A785.587,785.587,0,0,0,1580.1,1797.6Z" transform="translate(0.192 -627.935)"/>
      <path id="Path_7" data-name="Path 7" class="cls-2" d="M311.451,1886.125c-46.252-5.246-92.5-10.427-138.947-12.922-45.932-2.495-92.119-2.431-137.859,2.879Q17.276,1878.1.1,1881.2v7.8a626.773,626.773,0,0,1,95.958-9.468c46.06-1.152,92.119,1.727,137.923,6.013,19.319,1.791,38.575,3.9,57.895,6.077a124.227,124.227,0,0,1-16.889,1.216c-12.538.128-25.013-.7-37.551-1.024q-39.343-1.055-78.685-.512-78.973,1.151-157.691,8.764c-.32,0-.576.064-.9.064v7.677q36.464-3.55,73.056-5.757,79.453-4.7,159.226-2.751c14.01.32,28.02,1.216,41.966,1.152,13.434-.064,26.74-1.663,39.087-7.165C317.272,1891.563,314.713,1886.509,311.451,1886.125Z" transform="translate(0.156 -674.307)"/>
      <path id="Path_8" data-name="Path 8" class="cls-2" d="M1152.644,79.306c-129.223-6.909-258.7-12.027-388.117-9.084-130.758,2.943-260.685,16.889-390.676,30.259C249.682,113.275,124.873,124.79,0,122.679v7.677C240.022,134.45,477.934,88.582,717.508,79.37c260.365-9.98,520.219,15.481,780.136,26.037,140.418,5.693,281.22,6.973,421.447-3.9V93.828C1663.779,113.595,1407.828,92.932,1152.644,79.306Z" transform="translate(0.192 -24.994)"/>
      <path id="Path_9" data-name="Path 9" class="cls-2" d="M335.212,773.987c-10.363-3.391-21.3-4.094-32.114-4.094-11.707-.064-23.35.128-35.057.192-23.606.128-47.147.32-70.753.448q-71.009.48-142.081.9c-18.424.128-36.784.256-55.208.32v7.677l116.365-.768q70.433-.48,140.8-.9c13.178-.064,26.292-.192,39.471-.256,11.067-.064,22.2,0,32.945,2.815-2.687,5.885-11.259,7.932-17.017,8.828-5.054.768-10.235.64-15.353.7l-19.767.192c-26.74.32-53.544.512-80.285.768q-80.317.672-160.633.832c-12.219.064-24.373.064-36.528.064v7.677q56.519-.1,112.974-.32,83.2-.384,166.391-1.344c7.677-.064,15.289-.192,22.966-.256a73.955,73.955,0,0,0,15.929-1.6c9.66-2.239,18.424-7.677,19.767-18.168C338.219,775.97,336.62,774.435,335.212,773.987Z" transform="translate(0.192 -277.374)"/>
      <path id="Path_10" data-name="Path 10" class="cls-2" d="M1131.6,937.469q-99.6.48-199.208-.192c-65.955-.384-132.038-.512-197.737-6.205-65.891-5.757-130.119-20.983-195.562-29.811-30.195-4.094-60.709-6.461-91.224-4.926-30.706,1.535-60.581,7.933-90.2,15.865-30.131,8.06-60.07,17.272-90.968,21.942-30.834,4.67-62.245,3.71-93.207.832C115.917,929.664,58.086,917.253,0,922.115v7.869c44.652-3.71,89.88,2.815,134.341,8.316,30.067,3.71,60.325,7.165,90.712,6.781,30.131-.384,59.43-5.5,88.537-12.922,29.683-7.613,58.918-16.889,88.985-22.646,32.306-6.205,65.187-7.037,97.877-4.606,63.972,4.734,126.408,20.791,189.932,29.107C755,942.522,820.247,944.058,885.37,944.633q100.372.96,200.808.64,199.208-.384,398.353-4.926,200.168-4.51,400.144-13.242c11.451-.512,22.9-1.024,34.417-1.535v-7.677q-192.587,8.732-385.238,13.626Q1332.821,936.509,1131.6,937.469Z" transform="translate(0.192 -322.763)"/>
      <path id="Path_11" data-name="Path 11" class="cls-2" d="M250.158,47.7a48.4,48.4,0,0,0-13.5-1.855c-5.438-.192-10.875-.256-16.377-.448-10.875-.256-21.75-.576-32.626-.832C166.1,43.986,144.6,43.474,123.046,42.9Q61.441,41.267-.1,39.7v7.677Q112.938,50.255,225.976,53.2c4.8.128,9.66.128,14.458.448,4.094.32,8.764,1.024,12.091,3.71,2.495,1.983,4.606,5.566,3.774,8.828-.96,3.774-5.566,5.5-8.828,6.909-16.825,7.037-34.929,10.683-53.033,12.475-38.383,3.774-77.214.448-115.725,1.407q-39.535.96-78.813,4.99v7.677Q35.788,96,71.8,94.844c20.727-.64,41.39-.448,62.117-.128,19.575.32,39.279.512,58.79-1.279,19-1.727,37.935-5.31,55.719-12.475,7.229-2.879,15.417-6.845,15.673-15.8C264.487,56.78,257.642,50.191,250.158,47.7Z" transform="translate(0.228 -14.303)"/>
      <path id="Path_12" data-name="Path 12" class="cls-2" d="M2408.489,1004.244c-16.249-.128-32.562-.512-48.811-.448-14.906.064-30.131,1.088-44.077,6.653-2.3.9-3.646,3.263-2.3,5.63,5.885,10.363,17.912,13.306,28.979,14.01,7.293.448,14.713.128,22.007.128l24.949-.192q50.186-.288,100.436-.64,99.8-.672,199.528-1.279c21.046-.128,42.157.064,63.268-.7v-7.677c-17.017.576-34.1.512-51.113.64q-48.938.288-97.877.64-97.206.672-194.411,1.279l-55.016.384c-9.788.064-23.542.768-31.218-6.589,10.939-3.455,22.454-4.35,33.9-4.478,14.266-.192,28.532.192,42.8.32q44.045.384,88.025.832l175.475,1.727q44.716.48,89.369.9V1007.7q-83.58-.768-167.223-1.6Q2496.8,1005.043,2408.489,1004.244Z" transform="translate(-833.055 -361.647)"/>
      <path id="Path_13" data-name="Path 13" class="cls-2" d="M378.074,740.136c-32.306-1.279-64.676-1.216-96.981-1.151q-48.555.1-97.173.32L0,739.88v7.677q76.958-.288,153.852-.512c62.82-.192,125.7-1.088,188.525-.192,7.677.128,15.289.256,22.966.512,6.653.192,13.562-.064,20.151,1.151,6.4,1.215,20.215,5.246,17.4,14.394-1.727,5.757-9.02,9.4-13.882,12.027a85.261,85.261,0,0,1-17.4,6.973c-12.666,3.646-25.845,4.926-38.959,5.5-30.323,1.407-60.773,1.279-91.16,1.791q-46.923.864-93.847,1.663L0,793.552v7.677q65.251-1.151,130.439-2.367c64.164-1.151,128.391-1.855,192.555-3.518,26.292-.64,54.76-2.751,77.022-18.232,4.99-3.455,9.724-7.869,10.683-14.138a15.019,15.019,0,0,0-4.094-12.794C399.632,742.759,387.861,740.52,378.074,740.136Z" transform="translate(0.192 -266.233)"/>
      <path id="Path_14" data-name="Path 14" class="cls-2" d="M1580.076,1924.938c-69.217,7.1-138.179,13.434-207.78,14.714-68.834,1.279-137.731-.832-206.437-4.542-139.331-7.613-278.15-21.942-417.48-29.043q-52.2-2.687-104.466-3.774c-33.777-.64-67.746-1.344-101.4,1.855-32.945,3.135-63.972,12.346-95.638,21.431a496.1,496.1,0,0,1-95.7,17.464c-116.557,9.788-235.8-13.882-351.077,9.916v8c100.82-21.111,207.141-5.246,309.624-8,29.747-.768,59.494-3.135,88.857-8.188,32.37-5.63,63.14-16.377,94.87-24.373,66.083-16.7,137.22-11.387,204.71-8.892,138.115,5.118,275.655,19,413.578,28.02,137.475,9.02,275.335,12.538,412.682-1.088,68.514-6.845,136.772-15.161,205.734-13.626,63.332,1.407,126.408,8.828,189.037,17.912v-7.677c-44.077-6.333-88.281-11.9-132.742-15.161C1717.3,1914.767,1648.974,1917.837,1580.076,1924.938Z" transform="translate(0.156 -685.164)"/>
      <path id="Path_15" data-name="Path 15" class="cls-2" d="M2683.955,1611.711c-18.424,2.111-36.911,4.222-55.335,6.333-4.862.576-4.99,7.293,0,7.677a895.12,895.12,0,0,0,203.495-7.037q16.408-2.495,32.753-5.566v-7.8a887.713,887.713,0,0,1-179.376,15.417c-3.775-.064-7.613-.128-11.388-.256,17.145-1.983,34.289-3.9,51.37-5.885,32.306-3.711,64.612-7.485,97.109-9.276,14.074-.768,28.147-1.152,42.221-.96v-7.677C2804.35,1595.974,2743.96,1604.866,2683.955,1611.711Z" transform="translate(-945.521 -575.24)"/>
      <path id="Path_16" data-name="Path 16" class="cls-2" d="M2425.1,15.353c-62.5,10.747-126.536,13.114-189.8,15.993-70.689,3.2-141.506,4.542-212.259,2.495-71.265-2.047-142.465-7.485-213.09-17.72-34.609-4.99-69.154-11-103.762-16.121H1646.5c47.467,5.054,94.614,13.37,141.825,20.6A1881.95,1881.95,0,0,0,2001.1,40.75c71.712,2.751,143.553,1.983,215.265-.96,64.483-2.623,129.607-5.054,193.515-14.33,34.673-4.99,69.537-12.666,102.483-25.077V0h-22.582A487.375,487.375,0,0,1,2425.1,15.353Z" transform="translate(-593.012 0)"/>
      <path id="Path_17" data-name="Path 17" class="cls-2" d="M714.835,12.666a423.916,423.916,0,0,1-148.99,1.407A418.173,418.173,0,0,1,507.886,0H484.6A429.765,429.765,0,0,0,630.648,27.572a432.031,432.031,0,0,0,74.911-5.566c25.4-4.094,50.026-10.811,74.4-18.936,3.071-1.024,6.077-2.047,9.148-3.071H764.285A455.52,455.52,0,0,1,714.835,12.666Z" transform="translate(-174.401 0)"/>
      <path id="Path_18" data-name="Path 18" class="cls-2" d="M914.068,1970.869c-36.592,1.216-74.207,4.222-108.368,18.424h23.414c23.478-6.653,48.235-9.148,72.608-10.3a1069.1,1069.1,0,0,1,121.482,1.343c28.531,1.855,57.063,4.862,85.339,8.956h46.891a1134.9,1134.9,0,0,0-117.58-15.545A1109.96,1109.96,0,0,0,914.068,1970.869Z" transform="translate(-290.087 -709.856)"/>
      <path id="Path_19" data-name="Path 19" class="cls-2" d="M1859.065,1958.8c-52.2,3.2-104.338,7.357-156.6,9.4-53.609,2.047-107.281.959-160.889-1.28-109.648-4.542-219.3-10.235-328.943-15.481-54.056-2.559-108.176-5.182-162.169-9.02-53.992-3.774-107.856-10.619-161.977-12.6-53.1-1.919-104.85,4.926-156.923,14.522-53.608,9.916-107.217,20.087-160.761,30.195h41.454q39.534-7.389,79.005-14.841c53.033-9.98,106.193-21.175,160.313-22.518,53.672-1.279,107.089,5.566,160.441,9.979,53.992,4.414,108.048,7.421,162.1,10.044q162.84,7.965,325.809,15.417,20.919.959,41.838,1.855h188.2c29.107-1.471,58.214-3.455,87.257-5.438,101.459-6.781,204.646-13.434,305.274,5.438h2.367v-7.229C2037.418,1950.993,1947.666,1953.36,1859.065,1958.8Z" transform="translate(-205.457 -695.162)"/>
      <path id="Path_20" data-name="Path 20" class="cls-2" d="M421.382,228.186C280.708,226.075,140.1,219.358,0,205.988v7.677c257.87,24.629,517.34,26.42,776.17,19,271.56-7.741,542.865-24.053,814.169-38q164.376-8.444,328.815-16.889V170.1q-342.569,17.656-685.074,35.185C963.416,219.166,692.495,232.153,421.382,228.186Z" transform="translate(0.192 -61.284)"/>
      <path id="Path_21" data-name="Path 21" class="cls-2" d="M1591.263,470.039c-135.045-11.835-270.089-9.084-405.453-4.67-67.682,2.175-135.364,5.821-202.663,13.626C916.68,486.735,852,500.041,787.137,516.226c-30.706,7.677-63.652,13.5-94.231,2.111-13.37-4.99-26.036-13.242-34.481-24.885-6.781-9.34-10.044-20.151-21.942-24.053-13.434-4.478-30.195-1.983-44.077-1.983-17.272,0-34.481,0-51.753.064q-52.777.1-105.49.128-211.011.384-421.958,1.471c-4.414,0-8.892.064-13.306.064v7.677q192.779-.96,385.494-1.407,106.513-.192,212.962-.32c7.613,0,15.225-.192,22.774,0,10.747.256,17.976,2.367,24.245,11.707,6.973,10.427,12.474,19.448,22.838,27.06,20.919,15.353,47.851,20.087,73.248,18.3,33.265-2.367,65.315-13.562,97.621-21.047,32.882-7.613,66.083-13.69,99.476-18.552,67.874-9.98,136.388-14.905,204.9-17.912,69.026-2.943,138.115-4.222,207.141-5.31,68.514-1.024,136.836-.128,205.094,5.374,119.947,9.66,246.164,28.723,363.232-9.02V457.5C1814.333,491.789,1699.631,479.57,1591.263,470.039Z" transform="translate(0.228 -164.829)"/>
      <path id="Path_22" data-name="Path 22" class="cls-2" d="M369.181,1846.338q-51.049-1.919-102.1-3.9-101.427-3.934-202.855-7.8Q32.082,1833.384,0,1832.2v7.677l150.4,5.757q100.18,3.839,200.3,7.677c16.057.64,32.434.448,48.363,2.815,13.05,1.919,26.036,5.821,35.952,14.841-4.542,9.34-14.714,13.946-24.5,16.313-13.5,3.263-27.636,2.943-41.39,3.391q-53.544,1.823-107.153,3.582-107.185,3.55-214.306,7.165c-15.865.512-31.73,1.088-47.6,1.6v7.677q72.928-2.4,145.856-4.862,109.68-3.646,219.423-7.357c25.4-.832,66.851,2.239,77.982-27.444a3.767,3.767,0,0,0-.96-3.71C423.3,1848,394.45,1847.3,369.181,1846.338Z" transform="translate(0.192 -660.108)"/>
      <path id="Path_23" data-name="Path 23" class="cls-2" d="M639.024,519.832c-5.694-4.734-13.5-5.31-20.6-5.885-10.747-.832-21.559-1.535-32.306-2.175-42.477-2.623-85.018-4.094-127.624-5.054-42.605-.9-85.147-1.279-127.752-1.471-41.966-.192-83.931-.64-125.833.32-41.774.96-83.611,3.518-125,9.532-10.044,1.471-20.087,3.135-30.067,4.99-3.582.7-3.391,4.926-1.088,6.717a14.456,14.456,0,0,0-1.088,4.03c-.9,7.677,4.8,13.05,11.707,15.225a45.471,45.471,0,0,0,11.771,1.663c5.31.32,10.619.576,15.929.832l31.858,1.535q64.388,2.975,128.775,5.118,64.1,2.207,128.2,3.838,64,1.727,127.944,3.2c21.175.448,42.285.7,63.46-.256,17.592-.832,36.528-1.279,53.033-8.06,7.613-3.135,14.969-7.741,20.023-14.394C644.909,533.394,645.357,525.013,639.024,519.832Zm-8.956,19.447a39.969,39.969,0,0,1-10.108,6.461c-7.1,3.391-15.1,5.118-22.838,6.205-18.936,2.687-38.447,2.943-57.511,3.071-40.11.192-80.285-1.471-120.4-2.495q-61.221-1.535-122.442-3.39-60.549-1.823-121.1-4.222-30.611-1.247-61.157-2.687c-10.172-.512-20.407-.96-30.579-1.471-4.542-.256-9.148-.448-13.69-.7-3.9-.256-8.188-.512-11.643-2.623-2.239-1.343-3.646-3.2-3.263-5.949.128-1.151.96-3.966,2.623-3.71a4.069,4.069,0,0,0,4.286-2.175C137.293,512.667,213.8,512.347,289.8,512.667c80.86.32,161.721.576,242.517,3.966q30.131,1.247,60.261,3.135c9.98.64,19.959,1.151,29.939,2.111,4.478.448,13.882,1.855,13.882,7.932C636.273,533.714,632.691,536.976,630.068,539.279Z" transform="translate(-16.77 -181.933)"/>
      <path id="Path_24" data-name="Path 24" class="cls-2" d="M475.354,534.51c-39.79,7.485-80.541,6.653-120.779,3.71-40.366-2.943-80.6-8-121.035-9.148-22.774-.64-45.612,0-68.194,2.943-4.862.64-4.862,8.316,0,7.677,40.494-5.246,81.308-3.071,121.866.384,40.622,3.454,81.244,8.188,122.058,8a380.1,380.1,0,0,0,68.13-6.141C482.2,540.972,480.152,533.615,475.354,534.51Z" transform="translate(-58.066 -190.534)"/>
      <path id="Path_25" data-name="Path 25" class="cls-2" d="M828.744,549.574a699.213,699.213,0,0,1-72.224,6.333c-4.926.192-4.926,7.868,0,7.677a722.76,722.76,0,0,0,74.271-6.589C835.653,556.291,833.605,548.87,828.744,549.574Z" transform="translate(-271.037 -197.984)"/>
      <path id="Path_26" data-name="Path 26" class="cls-2" d="M1556.918,757.5c-127.688,7.1-254.992,19.7-382.616,27.508-125.641,7.677-252.049,10.875-377.562-1.088a1384.958,1384.958,0,0,1-190.828-31.41c-62.628-14.969-124.3-30.451-188.589-36.08-66.211-5.821-132.933-6.461-199.336-8.636L17.5,701.076c-5.821-.192-11.643-.384-17.4-.576v7.613c122.378,3.838,244.948,6.525,367.2,12.6,34.289,1.727,68.642,4.35,102.611,9.532,32.242,4.926,64.036,12.475,95.7,20.279,60.837,14.969,121.738,27.956,183.983,35.824,124.937,15.8,251.281,15.353,376.794,8.956,127.688-6.461,254.928-19,382.487-27.316,126.409-8.252,253.456-12.474,379.865-2.367,10.172.832,20.343,1.727,30.451,2.751V760.7C1798.8,749.055,1677.569,750.782,1556.918,757.5Z" transform="translate(0.156 -252.377)"/>
      <path id="Path_27" data-name="Path 27" class="cls-2" d="M1868.1,1676.089a676.149,676.149,0,0,0-104.146-8.7c-17.464-.128-34.993.384-52.393,1.535-15.993,1.024-32.306,1.983-48.107,4.8-13.434,2.367-27.38,7.549-34.417,20.023-1.088,1.919-.256,5.31,2.3,5.63,61.6,8.38,123.21-1.855,184.559-7.933,17.272-1.727,34.545-3.071,51.945-3.646,3.774-.128,4.67-4.606,2.687-6.653C1871.426,1679.1,1870.851,1676.537,1868.1,1676.089ZM1685.141,1694.9a379.069,379.069,0,0,1-45.868-2.239c6.461-6.845,16.185-9.724,25.333-11.451,14.969-2.815,30.515-3.582,45.676-4.606a721.62,721.62,0,0,1,99.8.192q19.671,1.439,39.151,4.094C1794.469,1684.406,1740.156,1694.449,1685.141,1694.9Z" transform="translate(-586.552 -600.723)"/>
      <path id="Path_28" data-name="Path 28" class="cls-2" d="M1601.982,1637.562c-67.362-2.367-134.661-7.037-201.831-12.41-67.682-5.374-135.428-13.242-203.3-15.481-32.5-1.088-65.123-.192-97.237,4.99-31.346,5.054-61.477,14.906-91.16,25.845-29.363,10.811-58.342,22.582-88.409,31.346-33.009,9.6-66.851,14.138-101.2,15.161-67.234,1.983-135.172-4.414-202.279-8.7-68.834-4.35-137.667-9.788-206.117-18.3-67.042-8.38-133.573-24.309-201.127-28.02-65.955-3.646-130.822,12.73-196.713,10.747-4.222-.128-8.38-.32-12.6-.64v7.485c50.794,3.518,101.971-5.822,152.829-9.34,69.409-4.8,136.58,9.98,204.838,20.215,67.874,10.236,136.26,16.824,204.71,21.878,68.386,5.054,136.964,9.66,205.478,12.091,33.393,1.152,66.914.9,100.052-3.582,31.154-4.222,61.221-12.986,90.776-23.542,30-10.747,59.558-23.03,90.008-32.5a392.528,392.528,0,0,1,98.772-17.208c68.322-3.135,137.22,5.885,205.222,11.515,67.874,5.629,135.748,10.939,203.75,14.329,120.843,5.95,242.581,5.63,362.656-10.555v-7.8C1814.241,1639.225,1707.856,1641.336,1601.982,1637.562Z" transform="translate(0.192 -579.788)"/>
      <path id="Path_29" data-name="Path 29" class="cls-2" d="M2324.146,567.172c-50.857-2.111-101.651-5.821-152.445-8.7-50.41-2.815-100.883-4.8-151.357-3.455-25.013.7-50.09,2.175-74.975,4.8q-18.424,1.919-36.848,4.8c-12.091,1.855-24.565,3.454-36.4,6.653-7.485,1.983-17.976,7.613-17.336,16.761.7,10.491,12.6,11.515,20.6,10.619q40.59-4.51,81.5-6.269c54.44-2.367,109.008-1.407,163.448.768,54.887,2.239,109.711,5.758,164.6,8.508,54.568,2.751,109.2,4.862,163.9,4.158,46.315-.576,92.695-2.943,138.563-9.34v-7.741a975.755,975.755,0,0,1-98.517,8.38c-53.289,2.047-106.577,1.088-159.866-1.151-53.608-2.175-107.217-5.63-160.825-8.316-53.224-2.687-106.449-4.8-159.737-4.286-26.676.256-53.417,1.088-80.029,2.879-13.306.9-26.676,1.983-39.982,3.327-3.071.32-29.3,5.246-25.717-3.646,1.535-3.838,7.357-6.077,10.939-7.1,5.63-1.6,11.579-2.431,17.336-3.454,11.963-2.175,23.99-4.094,36.08-5.63,24.373-3.135,48.875-5.118,73.376-6.269,49.45-2.239,98.965-.96,148.351,1.535,49.45,2.431,98.773,6.077,148.223,8.636,49.194,2.559,98.581,4.03,147.839,2.047,47.915-1.919,95.766-7.229,142.529-17.848V549.9a730.919,730.919,0,0,1-112.974,16.441C2424.389,569.859,2374.236,569.284,2324.146,567.172Z" transform="translate(-668.043 -198.119)"/>
      <path id="Path_30" data-name="Path 30" class="cls-2" d="M2111.157,1663.079c-63.716-2.175-127.5-5.438-191.02-10.427-63.4-4.99-126.92-14.841-190.572-14.266-61.349.576-124.937,12.794-175.283,49.706-2.687,1.983-2.367,5.885.9,7.037,29.3,10.235,60.453,12.73,91.288,12.539,33.009-.192,66.019-2.367,98.964-3.583q101.523-3.742,203.174-4.606,102.1-.864,204.262,1.152,101.619,2.015,203.111,6.845c40.43,1.919,81.756,5.566,122.57,3.519v-7.869c-33.073,1.6-66.595-.512-99.413-2.175q-100.948-5.182-202.087-7.485-101.044-2.3-202.215-1.791-101.139.48-202.215,3.838c-33.009,1.088-66.019,2.623-99.028,3.9-31.41,1.216-63.332,1.535-94.167-5.31-4.99-1.087-9.916-2.431-14.777-3.9,98.325-66.915,226.908-40.622,337.579-31.282,125.833,10.619,252.369,14.841,378.65,14.65q98.836-.192,197.609-4.35v-7.677Q2294.917,1669.125,2111.157,1663.079Z" transform="translate(-559.137 -590.272)"/>
      <path id="Path_31" data-name="Path 31" class="cls-2" d="M1673.091,1736.516c-31.666-3.006-63.78-5.245-95.318.448-29.747,5.374-57.255,18.3-85.53,28.339-30.771,10.939-62.308,15.737-94.934,16.185-31.986.448-63.972-2.047-95.83-3.838q-50.378-2.783-100.756-5.694c-134.341-7.676-268.746-15.929-402.895-26.484q-200.264-15.833-399.632-40.11c-126.728-15.353-256.207-29.683-383-7.357-5.054.9-10.108,1.855-15.1,2.879v7.868c116.685-23.478,236.952-14.33,354.532-.832,131.206,15.033,262.285,30.323,393.939,41.326,132.805,11.067,265.8,19.639,398.864,27.38,66.915,3.9,133.893,7.932,200.872,11.323,30.451,1.535,61.093,2.431,91.416-1.663,30.771-4.158,58.918-15.1,87.769-26.037,29.939-11.387,59.494-18.936,91.672-19.127,33.073-.192,66.211,4.158,99.028,7.613q100.372,10.555,200.36,24.821c.256.064.512.064.768.128v-7.677q-73.024-10.459-146.3-18.872Q1722.925,1741.282,1673.091,1736.516Z" transform="translate(0.156 -607.605)"/>
      <path id="Path_32" data-name="Path 32" class="cls-2" d="M2656.34,278.177q-41.741-1.919-83.355-5.63c-13.882-1.279-27.7-2.687-41.582-4.222-13.5-1.535-27.06-3.391-40.75-3.327-24.885.128-51.753,8-65.635,30.195-1.215,1.919-.128,5.246,2.3,5.63q83.291,12.762,166.967,22.134c53.352,6.013,107.281,12.666,161.017,10.875,12.474-.448,24.885-1.343,37.3-2.943v-7.677c-35.376,4.542-71.52,3.71-107.089,1.088-54.44-4.03-108.816-10.683-162.936-17.72q-43.757-5.661-87.449-12.347c12.73-15.609,34.161-21.239,53.736-21.559,13.178-.256,26.356,1.407,39.406,2.943q20.44,2.3,40.942,4.222,80.988,7.485,162.425,7.932c20.343.128,40.686-.128,61.029-.64v-7.677Q2724.534,281.28,2656.34,278.177Z" transform="translate(-873.318 -95.474)"/>
      <path id="Path_33" data-name="Path 33" class="cls-2" d="M1645.675,205.551c-66.339.7-131.462,7.869-196.841,18.808-68.834,11.515-137.22,20.023-206.949,22.966-137.859,5.821-276.1,6.653-414.026,8.572-138.691,1.983-277.446,2.751-416.137.832C274.439,254.809,137.092,250.139,0,241.311v7.677c258.766,16.569,518.236,18.36,777.45,15.225q207.557-2.495,415.049-7.613c67.554-1.791,134.917-5.438,201.767-15.609,67.362-10.236,133.893-23.03,202.151-26.356,107.6-5.182,215.137,4.542,322.738,6.4v-7.677C1827.995,211.82,1736.9,204.591,1645.675,205.551Z" transform="translate(0.192 -74.025)"/>
      <path id="Path_34" data-name="Path 34" class="cls-2" d="M1627.855,505.957c-67.874-5.374-135.3-15.609-203.3-19-65.891-3.327-131.91.9-197.353,9.084-29.3,3.646-58.47,8.06-87.514,12.922a3.174,3.174,0,0,0-2.687-4.094c-64.42-10.683-129.607-1.535-193,11.067-64.036,12.73-127.688,29.491-193.067,33.521-35.952,2.239-72.224.256-107.281-8.444-4.8-1.215-6.845,6.205-2.047,7.421,62.884,15.673,128.072,9.6,191.084-1.855,64.548-11.707,128.2-29.171,193.579-36.016,33.521-3.518,67.426-4.094,100.82.576-96.342,16.441-191.98,36.912-288.961,49.194-108.368,13.69-217.568,15.161-326.64,13.434-36.72-2.495-73.632-3.007-110.415-2.495Q207.617,566.378,14.1,561.229l-14.2-.384v7.677q132.134,3.454,264.332,6.845c-9.852.384-19.639.768-29.491,1.215q-66.019-2.495-132.166-.448Q51.237,573.447-.1,570.5v7.677c9.532.512,19.064,1.088,28.6,1.6-9.532.64-19.064,1.407-28.6,2.175v14.714q87.705-5.086,175.475-9.148,74.847,3.55,149.822,6.141,28.4.96,56.807,1.663,43.085,4.894,85.914,11.707c66.595,10.619,132.038,26.676,198.313,38.895,66.019,12.155,132.422,16.377,199.464,14.905,67.042-1.535,133.893-7.165,200.808-11.067q207.653-11.995,415.753-12.6,218.5-.672,436.735,11.259v-7.677q-193.258-10.459-386.773-11.259-208.036-.768-415.817,9.852c-137.412,7.037-277.19,25.653-414.218,4.862-66.659-10.108-132.1-27.124-198.5-38.959q-26-4.606-52.009-8.508c57,.9,114,1.088,171,.256,29.3,6.013,58.47,12.986,87.9,20.087,30.259,7.293,60.709,13.818,91.672,17.272,32.434,3.646,65.187,3.774,97.813,2.3,65.955-3.007,131.718-10.555,197.609-14.777,131.782-8.316,263.82-11.131,395.794-10.939,141.89.256,283.779,3.966,425.669,8.124v-7.677c-257.742-7.485-515.869-13.754-773.547,0-66.275,3.518-132.294,9.276-198.441,14.522-66.275,5.246-131.462,5.693-196.905-7.8-31.346-6.461-62.309-14.394-93.4-21.75q40.014-.864,80.029-2.431C802.427,591.3,868,587.009,932.929,577.349c66.723-9.916,132.1-26.932,198.5-38.767,128.839-23.094,259.6-17.08,389.652-10.747,126.92,6.141,255.312,12.283,381.016-10.875,5.693-1.023,11.387-2.175,17.08-3.327v-7.868c-116.94,24.245-237.207,21.878-356.067,16.441-127.944-5.821-256.783-15.161-384.343,1.343-65.124,8.444-128.775,24.5-193.2,37.04-66.467,12.922-133.7,19.767-201.255,23.542q-78.973,4.414-158.138,5.438c-13.05-2.751-26.1-5.31-39.279-7.485,68-.128,135.94-2.3,203.686-8.764,131.654-12.6,260.493-43.629,391.124-63.268,65.891-9.916,132.486-16.761,199.208-16.5,67.874.192,135.236,9.212,202.663,16.121,112.654,11.515,224.989,8.892,335.532-12.986v-7.868A1058.431,1058.431,0,0,1,1627.855,505.957ZM382.2,587.649q-32.434-3.646-65-6.269l9.4-.384c24.757-.96,49.514-1.727,74.271-2.111,37.168.96,74.4,1.919,111.631,2.559,3.071.192,6.077.448,9.148.64,21.239,1.663,42.157,4.414,62.948,7.8C517.112,590.336,449.622,589.376,382.2,587.649Z" transform="translate(0.228 -175.031)"/>
      <path id="Path_35" data-name="Path 35" class="cls-2" d="M152.317,71.279c-21.878-8.764-45.676-9.98-69.026-10.555Q44.716,59.86,6.013,59.7H0v7.677c12.794.064,25.653.128,38.447.32,24.5.32,49.322-.128,73.76,2.239a143.986,143.986,0,0,1,33.649,7.1c-1.983,1.855-5.182,2.559-7.869,2.943-5.63.832-11.515.448-17.208.512-13.754.192-27.444.32-41.2.576-26.548.512-53.1,1.471-79.581,4.094v7.677c41.71-4.222,83.867-4.158,125.833-4.734,9.916-.128,26.42.576,29.171-12.091C155.516,73.774,154.364,72.111,152.317,71.279Z" transform="translate(0.192 -21.509)"/>
      <path id="Path_36" data-name="Path 36" class="cls-2" d="M1185.078,138.612c-133.317-3.646-266.443-11-399.76-14.33-66.4-1.663-132.869-1.215-199.208,2.559-65.571,3.774-131.014,10.108-196.457,15.993C259.854,154.605,130.183,161,0,158.252v7.741c114,2.559,227.932-1.535,341.61-11.2,131.526-11.2,262.476-25.013,394.706-23.734,133.317,1.343,266.635,9.788,399.888,13.818q199.688,6.045,399.5,7.165,191.724,1.056,383.447-2.495v-7.677Q1552.116,148.592,1185.078,138.612Z" transform="translate(0.192 -44.446)"/>
      <path id="Path_37" data-name="Path 37" class="cls-2" d="M1770,460.634c-34.033-.576-67.746-5.949-101.459-10.044-69.154-8.444-138.883-10.235-208.548-10.683-69.6-.448-139.2-.448-208.8.448-137.156,1.855-274.759,8.828-409.8,34.289-31.858,6.013-64.1,13.306-96.725,11.579-17.592-.96-34.673-4.99-50.41-12.858-12.858-6.4-24.821-14.394-38-20.087-30.131-12.858-64.292-9.724-96.278-9.468l-105.873.96q-212.738,1.919-425.477,3.774c-9.6.064-19.128.192-28.723.256v7.677q200.072-1.823,400.208-3.582l107.92-.96c34.353-.32,69.09-2.175,103.379-.384,18.424.96,35.313,4.926,51.689,13.5,12.73,6.653,24.821,14.458,38.191,19.831,28.531,11.387,59.942,10.491,89.88,6.4,32.178-4.414,63.972-11.771,96.086-16.889,34.929-5.566,69.985-9.98,105.17-13.5,69.153-6.909,138.563-10.3,208.036-11.963,68.9-1.663,137.8-1.6,206.693-1.535,69.665.064,139.395.128,208.932,5.63,67.682,5.31,135.3,21.239,203.3,12.347,33.649-4.414,66.595-13.114,99.668-20.791V436.9c-17.144,3.9-34.289,8.124-51.369,11.9C1835.571,455.964,1803.074,461.209,1770,460.634Z" transform="translate(0.228 -157.407)"/>
      <path id="Path_38" data-name="Path 38" class="cls-2" d="M1751.173,598.083a647.14,647.14,0,0,0-89.113,16.057c-4.8,1.216-2.751,8.636,2.047,7.421a637.881,637.881,0,0,1,87.13-15.8C1756.035,605.184,1756.1,597.507,1751.173,598.083Z" transform="translate(-597.633 -215.467)"/>
      <path id="Path_39" data-name="Path 39" class="cls-2" d="M1563.471,237.575c-62.245,1.727-121.8,18.04-182.512,30.131-64.931,12.922-130.375,14.266-196.33,12.475-130.886-3.582-261.325-3.582-392.211.7-131.4,4.35-262.8,10.939-394.258,13.562-130.439,2.623-261.133,1.343-391.188-9.916-2.3-.192-4.606-.384-6.973-.64v7.677c116.877,10.363,234.265,12.73,351.589,11.323,131.462-1.6,262.8-7.869,394.194-12.666,131.334-4.8,262.8-7.869,394.194-3.71,65.123,2.047,130.63,4.862,195.5-3.454,63.4-8.124,124.681-28.212,188.333-35.184,120.971-13.178,242.133,24.373,362.784,4.8,11-1.791,21.814-4.094,32.562-6.909v-7.932C1802.534,268.666,1681.819,234.313,1563.471,237.575Z" transform="translate(0.192 -85.514)"/>
      <path id="Path_40" data-name="Path 40" class="cls-2" d="M1627.507,870.991c-145.728,18.3-293.119,19.639-439.806,23.989q-111.791,3.263-223.582,6.589c-70.945,2.111-142.657,4.542-213.026-7.165-33.969-5.63-66.467-15.545-98.9-26.612-31.538-10.811-63.332-21.686-96.6-25.589-61.413-7.229-121.674,11.451-179.441,30.131-60.517,19.575-121.546,39.535-186.03,34.929C126.6,902.721,64.164,880.523,0,884.873v7.869c49.9-3.518,100.628,9.852,149.95,17.4,30.962,4.734,62.117,7.229,93.335,3.774,29.363-3.262,58.086-10.427,86.3-18.872,59.43-17.784,118.348-42.221,180.912-46.252,68.962-4.478,129.287,26.42,194.282,43.565,65.827,17.336,134.469,19.447,202.151,18.3,72.8-1.215,145.6-4.094,218.336-6.205,145.6-4.286,291.9-5.374,437.055-18.744,64.8-6.013,128.9-17.72,193.707-23.67,54.184-4.926,111.695-5.438,163.128,14.65V868.5C1828.571,834.143,1720.65,859.284,1627.507,870.991Z" transform="translate(0.192 -302.857)"/>
      <path id="Path_41" data-name="Path 41" class="cls-2" d="M1591.335,831.218c-136.2,26.356-274.119,34.609-412.682,32.945-68.642-.832-137.22-3.774-205.734-7.357-67.426-3.518-135.108-6.205-202.279-12.986-34.033-3.454-68-8.188-101.459-15.481-32.5-7.1-63.716-18.168-95.83-26.676-29.747-7.869-60.133-11.707-90.456-4.862-30.515,6.909-58.854,21.047-89.113,29.043-125.513,33.2-255.759-3.966-383,4.862-3.582.256-7.1.512-10.683.832v7.741c115.725-10.363,232.154,18.872,347.879,3.327A405.537,405.537,0,0,0,434.661,820.6c30.77-11.387,60.773-22.134,94.1-19.447,33.137,2.623,64.676,14.65,96.342,23.862a715.631,715.631,0,0,0,97.621,20.6c64.867,9.34,130.5,12.219,195.882,15.865,67.874,3.774,135.748,7.293,203.75,9.148,134.469,3.646,269.577.7,402.766-19.959,126.408-19.639,259.662-64.548,386.326-21.942,2.623.9,5.246,1.791,7.8,2.751v-8.124C1814.6,785.67,1698.1,810.619,1591.335,831.218Z" transform="translate(0.156 -285.794)"/>
      <path id="Path_42" data-name="Path 42" class="cls-2" d="M1563.983,1862.735c-67.17,2.879-134.021,9.98-201,14.65a1782.429,1782.429,0,0,1-198.249,2.559c-133.125-5.693-266.251-20.087-398.8-33.265-131.462-13.05-262.476-33.9-394.386-41.774-123.849-7.357-247.827-2.111-371.548,5.31v7.677c107.537-6.461,215.265-11.259,322.93-7.549,132.358,4.542,263.436,25.4,394.962,39.151,132.422,13.818,265.291,27.316,398.161,35.568,66.083,4.094,132.422,5.822,198.568,2.815,67.106-3.071,133.957-10.235,201-14.778,134.98-9.084,269.257.832,403.47,13.754v-7.741C1801.127,1867.533,1682.651,1857.682,1563.983,1862.735Z" transform="translate(0.192 -648.998)"/>
      <path id="Path_43" data-name="Path 43" class="cls-2" d="M2376.349,972.774c-36.016.768-72.1,2.3-107.856,7.037a524.933,524.933,0,0,0-58.79,10.875c-13.05,3.2-29.747,9.4-30.707,25.077a3.839,3.839,0,0,0,2.814,3.71c35.7,9.212,72.48,13.178,109.136,15.545,37.808,2.431,75.679,3.135,113.55,2.879,75.423-.512,150.782-4.414,226.141-7.421,24.5-.959,49-1.983,73.567-2.943v-7.677q-86.361,3.454-172.724,6.909c-74.847,2.943-149.822,5.374-224.669,1.471-40.174-2.047-80.476-5.63-119.627-15.353,3.135-10.364,19.256-13.562,28.148-15.737a511.349,511.349,0,0,1,51.945-9.532c34.737-4.606,69.729-6.269,104.722-7.1,72.352-1.6,144.768-1.791,217.184-2.559q57.479-.672,115.021-1.279V969q-108.528,1.152-217.12,2.367C2450.172,971.815,2413.26,972.007,2376.349,972.774Z" transform="translate(-784.858 -349.113)"/>
      <path id="Path_44" data-name="Path 44" class="cls-2" d="M1177.721,41.617C1044.34,31.7,911.215,10.59,777.258,10.4c-66.4-.064-131.4,8.06-196.969,17.656-65.443,9.6-130.119,15.929-196.265,11.451C258.638,31,134.277-3.675,7.933,7.968,5.31,8.16,2.623,8.479,0,8.735v7.741C114.51,4.193,229.211,31.509,342.889,43.6c64.356,6.845,127.752,6.653,191.916-1.471,65.635-8.316,130.63-20.343,196.841-23.094,133.317-5.5,265.995,15.225,398.48,26.484q199.208,16.889,399.312,16.5,195.082-.384,389.652-17.4V36.947q-169.557,14.777-339.946,17.08Q1378.4,56.426,1177.721,41.617Z" transform="translate(0.192 -2.018)"/>
      <path id="Path_45" data-name="Path 45" class="cls-2" d="M1534.932,1030.093c-32.754-.9-65.7-1.152-98.325-4.478a267.794,267.794,0,0,1-47.083-8.764c-14.778-4.35-28.531-11-42.605-16.953-13.242-5.629-26.868-10.235-41.39-11.067-15.161-.832-30.323,2.239-44.844,6.461-14.714,4.286-29.235,9.212-43.821,14.01,7.165-6.909,10.747-17.912,1.855-25.461-6.461-5.566-17.08-5.693-25.013-6.973-10.363-1.6-20.791-3.071-31.218-4.35-43.181-5.374-86.682-7.868-130.183-8.956-86.938-2.239-173.875,1.023-260.749-1.727-43.949-1.407-87.961-4.35-131.59-10.427-43.117-6.013-85.85-16.057-129.415-18.424-42.605-2.367-82.78,6.589-123.849,16.633-21.047,5.118-42.157,9.788-63.652,12.283a493.283,493.283,0,0,1-61.477,2.815c-83.675-1.088-166.263-19-250-19-3.9,0-7.869.064-11.771.128v7.74c64.867-1.407,129.607,8.956,194.155,14.841,40.174,3.71,80.732,5.694,120.971,1.919,40.11-3.774,78.3-15.545,117.58-23.605,20.919-4.286,41.9-6.845,63.268-6.589,21.878.256,43.629,2.815,65.251,6.141,41.774,6.461,83.1,14.2,125.193,18.1,84.507,7.8,169.525,6.269,254.288,6.014,85.082-.192,170.613.9,254.8,14.458,7.485,1.215,23.989,1.727,20.343,13.434-2.879,9.212-14.394,11-22.582,12.538-20.983,3.9-42.157,6.653-63.46,8.508-1.343.128-2.751.256-4.094.32,13.69-2.559,26.868-6.909,38.511-14.841a3.921,3.921,0,0,0-.9-7.037c-34.417-13.626-71.712-9.34-107.409-4.158-19.128,2.751-38.255,5.63-57.575,6.781a556.907,556.907,0,0,1-60.261.064c-40.43-1.983-80.541-7.1-120.779-10.939a982.492,982.492,0,0,0-121.93-4.286c-30.067-7.293-60.006-14.33-91.224-15.737-39.407-1.855-79.133,1.215-118.54,2.815l-233.561,9.4q-119.563,4.8-239.191,9.66c-4.286-1.152-8.572-2.367-12.794-3.646v11.835c3.966-.192,8-.32,11.963-.512a421.028,421.028,0,0,0,43.5,9.34,274.072,274.072,0,0,0,56.039,3.326c19.383-1.023,38.383-4.8,57.383-8.7,20.087-4.094,40.174-7.613,60.709-8.508,20.343-.832,40.75.192,61.029,1.6,41.07,2.943,82.012,6.013,123.21,6.973q61.317,1.439,122.57-1.535c41.2-1.983,82.268-5.31,123.4-7.357,11.643-.576,23.286-1.088,34.993-1.407h0a790.3,790.3,0,0,0,111.183,19.7c37.551,3.774,75.231,5.5,112.91,7.357,29.619,1.471,59.238,2.879,88.921,3.518h-5.821c-86.938-.192-173.875-.768-260.749-2.559-87.13-1.791-174.067-6.4-261.069-10.683-86.618-4.286-173.236-4.542-259.79,1.343-39.982,2.751-79.709,7.8-119.627,10.939-32.69,2.559-66.915,3.263-98.261-7.549-.832-.256-1.6-.576-2.431-.9v8.252c46.252,16.313,101.779,7.8,149.054,3.007a2046.265,2046.265,0,0,1,267.082-10.043c89.561,2.559,178.993,9.276,268.554,11.9,89.177,2.559,178.417,3.2,267.658,3.71,44.013.256,88.089.768,132.1-1.088,21.686-.9,43.309-2.431,64.867-4.926,10.491-1.216,20.983-2.623,31.41-4.286.256-.064.448-.064.7-.128-3.9,1.152-7.869,2.239-11.835,3.263-122.57,32.178-250.194,36.784-376.282,34.8-128.583-2.047-256.847-9.66-385.494-7.037A3437.039,3437.039,0,0,0,9.012,1082.934c-3.071.448-6.077.832-9.148,1.28v7.677a3434.066,3434.066,0,0,1,363.1-31.666c129.479-4.35,258.51,1.6,387.925,4.926,123.977,3.2,249.3,2.175,371.292-22.71a878.512,878.512,0,0,0,91.16-23.606c30.131-9.6,61.669-25.2,94.039-22.454,31.282,2.623,58.6,22.518,88.857,29.939,29.235,7.229,59.558,8.572,89.56,9.66q202.471,7.2,405.07,1.088c9.4-.256,18.808-.576,28.212-.9v-7.677Q1727.071,1035.4,1534.932,1030.093ZM147.319,999.579c-19.9,3.71-39.79,5.566-60.006,4.542a315.064,315.064,0,0,1-47.083-6.141q72.448-2.975,144.96-5.885C172.524,994.461,159.985,997.212,147.319,999.579ZM449.01,996q-61.893-.192-123.658-4.734c-13.69-1.024-27.444-2.175-41.2-3.135q88.569-3.55,177.074-7.165c39.535-1.6,79.2-4.094,118.8-4.286,19.959-.064,39.918.832,59.686,4.03,9.212,1.535,18.424,3.391,27.508,5.5C594.418,989.407,521.874,996.188,449.01,996Zm607.412,20.215c-38.639.384-77.278-1.024-115.853-2.815-71.776-3.39-144.129-5.693-214.5-20.855,18.936,0,37.871.512,56.807,1.855,39.982,2.687,79.773,7.932,119.691,11.387,39.982,3.391,80.349,4.926,120.331.256,37.1-4.35,75.039-13.818,112.463-7.869a115.014,115.014,0,0,1,17.976,4.35C1124.617,1017.811,1087.9,1015.892,1056.423,1016.211Z" transform="translate(0.264 -335.999)"/>
      <path id="Path_46" data-name="Path 46" class="cls-2" d="M1541.913,354.9c-62.245-8.892-124.233-18.168-187.053-22.262-65.251-4.286-130.694-4.734-196.074-3.774-129.159,1.919-258.254,6.845-387.349,10.555Q575.2,345.079,378.905,350.677,189.485,356.146,0,361.552v7.677L723.841,348.5c129.287-3.71,258.51-7.932,387.8-11,65.379-1.535,130.822-2.175,196.2.448,64.931,2.559,129.159,9.4,193.451,18.808,69.793,10.171,139.395,19.255,209.956,21.558a1566.009,1566.009,0,0,0,207.844-7.549v-7.677A1560.3,1560.3,0,0,1,1541.913,354.9Z" transform="translate(0.192 -118.331)"/>
      <path id="Path_47" data-name="Path 47" class="cls-2" d="M2227.824,1254.726c-49-18.168-100.948-27.06-153.085-29.427-52.712-2.431-105.489,1.6-157.69,8.508-28.979,3.838-57.831,8.508-86.618,13.626a6.038,6.038,0,0,0-5.821,3.006c-3.071,5.118,2.623,9.02,7.1,9.468,6.589.64,13.5.128,20.151.192,7.037.064,14.074.064,21.047.128q42.8.288,85.594.512,85.882.48,171.764,1.023l96.406.576C2231.343,1262.275,2231.726,1256.133,2227.824,1254.726Zm-156.859-1.088q-77.918-.48-155.835-.9c-14.713-.064-29.363-.192-44.076-.256-7.229-.064-14.458-.064-21.687-.128h-2.751c46.316-8,92.887-14.714,139.843-17.976,51.753-3.582,104.146-3.006,155.387,5.565a469.625,469.625,0,0,1,61.349,14.522Q2137.08,1253.99,2070.965,1253.639Z" transform="translate(-656.868 -441.196)"/>
      <path id="Path_48" data-name="Path 48" class="cls-2" d="M1515.429,724.367c-130.183,5.566-259.662,20.151-389.589,29.235C997.129,762.558,867.074,766.2,739,747.844c-63.588-9.084-124.809-25.4-186.35-43.373-30.77-8.956-61.733-17.464-93.463-22.39-30.962-4.8-62.309-5.821-93.591-4.862-65.443,2.047-130.758,11.963-196.33,8C112.654,681.761,56.807,666.664,0,666.6v7.8c42.989.064,86.234,8.828,128.775,14.458,64.548,8.444,128.391,2.751,193-1.663,32.882-2.239,65.955-3.774,98.964-1.663,32.562,2.047,64.484,8.444,95.958,16.825,61.861,16.377,122.186,36.208,185.39,47.339,124.873,21.942,252.369,21.814,378.585,14.522,128.775-7.421,257.039-22.262,385.814-29.683a3372.888,3372.888,0,0,1,401.3.959c16.953,1.024,33.905,2.239,50.794,3.518h.512V731.4c-.192,0-.32-.064-.512-.064A3377.375,3377.375,0,0,0,1515.429,724.367Z" transform="translate(0.192 -240.164)"/>
      <path id="Path_49" data-name="Path 49" class="cls-2" d="M1343.336,1346.2c-65.059-2.111-129.1-1.727-193.195,10.427-33.521,6.4-65.891,10.683-99.924,5.63-30.962-4.606-60.965-14.266-91.288-21.814-63.2-15.8-127.176-15.1-191.788-11.387-133.061,7.677-265.611,6.333-398.8,3.135-122.762-2.943-245.908-5.5-368.478,3.262v7.741c105.937-7.613,212.322-6.781,318.452-4.478,133.253,2.879,266.7,7.869,399.952.832,65.7-3.454,132.166-10.172,197.673-.192,44.2,6.717,87,23.094,131.078,30.067-26.676-2.687-53.736-3.774-80.285-5.054-78.749-3.839-157.69-5.757-236.5-8.508-78.557-2.687-157.179-6.4-235.608-.32-38.895,3.007-77.662,7.421-116.685,8.572-39.343,1.152-78.749-.768-118.028-2.623-78.813-3.774-157.627-5.821-236.5-5.693-7.869,0-15.673.064-23.542.064v7.677q98.645-.576,197.353,2.943c76.83,2.751,153.34,8.508,230.171,2.431,37.871-3.007,75.615-7.037,113.55-8.38,38.383-1.343,76.83-.7,115.213.512,77.086,2.367,154.172,5.246,231.194,7.933,38.511,1.343,77.086,2.623,115.533,5.118q28.308,1.823,56.487,4.8c13.946,1.471,30.387,2.175,42.286,10.555,13.754,9.6,11.2,27.252.32,38.127-12.41,12.41-32.114,13.818-48.619,15.481-37.807,3.9-75.807,6.269-113.806,7.421-76.446,2.3-153.021-.064-229.4-3.71-76.638-3.646-153.149-8.508-229.851-11.2q-114.67-3.934-229.211,1.535c-77.022,3.775-153.916,9.6-231,12.538-6.781.256-13.5.512-20.279.7v7.677c66.723-2.047,133.381-6.653,200.04-10.491,78.365-4.542,156.667-7.229,235.16-5.565,78.557,1.663,157.051,6.4,235.48,10.491,77.918,4.03,155.963,7.421,234.009,6.461,39.151-.512,78.237-2.111,117.26-5.246,16.633-1.343,33.649-2.239,50.154-5.182-52.713,23.286-105.553,46-161.849,59.3-61.8,14.65-125.449,19.383-188.845,18.36-128.072-2.111-254.352-26.484-381.08-42.477-112.59-14.2-228.443-22.39-340.33.192v8.061c97.493-19.7,198.5-16.313,297.469-5.566,127.3,13.818,253.392,39.215,381.464,46,61.989,3.262,124.361,1.983,185.71-7.741,65.187-10.3,126.344-32.178,186.67-58.47,65.123-28.4,129.479-59.43,199.08-75.615,68.45-15.929,139.139-18.808,209.188-16.057,141.506,5.693,281.732,34.1,423.685,30,11.963-.32,23.989-.96,35.952-1.791v-7.676c-136.644,9.532-272.584-15.225-408.588-25.205-68.962-5.054-138.563-6.333-207.2,3.2-68.578,9.532-132.614,32.306-195.754,59.878a39.9,39.9,0,0,0,6.269-7.869c6.781-11.2,7.421-25.4-1.151-35.76-8-9.724-21.111-13.5-33.009-15.481q-5.853-.96-11.707-1.727a201.965,201.965,0,0,0,31.73.128c32.242-2.431,63.652-11.2,95.7-15.1,32.69-3.966,65.635-4.734,98.517-4.35,66.915.768,133.829,4.03,200.744,6.269l406.093,13.626c6.141.192,12.219.384,18.36.64v-7.677q-187.022-6.237-373.979-12.538Q1444.284,1349.493,1343.336,1346.2Z" transform="translate(0.264 -478.037)"/>
      <path id="Path_50" data-name="Path 50" class="cls-2" d="M2916.354,1235.6c-36.72,15.417-76.574,12.219-115.405,14.522-9.02.512-18.616,2.175-24.949,9.276-1.472,1.663-1.6,4.926.768,6.013,20.151,9.4,41.39,16.953,63.652,19.064a118.891,118.891,0,0,0,33.329-1.6c10.683-2.047,20.983-5.437,31.282-8.7,4.606-1.471,9.148-2.943,13.818-4.286v-7.933c-13.562,3.838-26.8,8.828-40.494,12.091-21.175,5.118-42.541,3.71-63.4-2.175a216.626,216.626,0,0,1-29.043-10.683c7.037-3.966,16.441-3.518,24.181-3.71,12.282-.384,24.629-.512,36.912-1.088,24.245-1.087,48.747-3.838,71.265-13.37a1.916,1.916,0,0,0,.512-.256v-6.973A2.919,2.919,0,0,0,2916.354,1235.6Z" transform="translate(-999.566 -445.098)"/>
      <path id="Path_51" data-name="Path 51" class="cls-2" d="M2328.488,1440.622c-48.3-7.549-96.15-17.848-144.832-22.71a641.648,641.648,0,0,0-139.714,1.343,648.556,648.556,0,0,0-151.677,36.848c-3.262,1.216-3.646,4.99-.9,7.037,35.184,26.228,81.564,30.067,123.913,25.845,25.141-2.559,49.962-7.549,74.975-11.579,25.908-4.158,51.753-6.461,78.045-5.5,26.549.96,52.905,4.03,79.325,6.461q39.823,3.742,79.645,6.973c52.841,4.414,105.745,8.316,158.65,12.155,26.165,1.919,52.393,4.031,78.622,5.5,11.771.7,23.605,1.088,35.44,1.024V1496.6c-31.73.448-63.78-3.135-95.062-5.374-52.393-3.774-104.786-7.612-157.179-11.835q-39.439-3.166-78.877-6.717c-26.229-2.367-52.393-5.246-78.685-7.165-25.717-1.919-51.369-2.111-77.022.96-25.141,3.007-49.9,8.125-74.911,11.9-42.925,6.461-90.392,8.636-129.671-13.178-2.431-1.344-4.8-2.751-7.1-4.286a642.958,642.958,0,0,1,267.978-36.528c48.363,3.775,95.958,13.69,143.745,21.623a1114.99,1114.99,0,0,0,147.327,14.2c46.444,1.471,92.951.768,139.395-.32V1452.2C2509.272,1454.248,2418.368,1454.7,2328.488,1440.622Z" transform="translate(-680.573 -509.704)"/>
    </g>
    <g id="Group_4" data-name="Group 4" transform="translate(0.192 129.607)">
      <g id="Group_2" data-name="Group 2">
        <rect id="Rectangle_2" data-name="Rectangle 2" class="cls-3" width="1919.155" height="14.074"/>
        <rect id="Rectangle_3" data-name="Rectangle 3" class="cls-3" width="1919.155" height="14.074" transform="translate(0 143.745)"/>
        <rect id="Rectangle_4" data-name="Rectangle 4" class="cls-3" width="1919.155" height="14.074" transform="translate(0 287.489)"/>
        <rect id="Rectangle_5" data-name="Rectangle 5" class="cls-3" width="1919.155" height="14.074" transform="translate(0 431.17)"/>
        <rect id="Rectangle_6" data-name="Rectangle 6" class="cls-3" width="1919.155" height="14.074" transform="translate(0 574.915)"/>
        <rect id="Rectangle_7" data-name="Rectangle 7" class="cls-3" width="1919.155" height="14.074" transform="translate(0 718.659)"/>
        <rect id="Rectangle_8" data-name="Rectangle 8" class="cls-3" width="1919.155" height="14.074" transform="translate(0 862.404)"/>
        <rect id="Rectangle_9" data-name="Rectangle 9" class="cls-3" width="1919.155" height="14.074" transform="translate(0 1006.085)"/>
      </g>
      <g id="Group_3" data-name="Group 3" transform="translate(0 14.138)">
        <rect id="Rectangle_10" data-name="Rectangle 10" class="cls-4" width="1919.155" height="8.124"/>
        <rect id="Rectangle_11" data-name="Rectangle 11" class="cls-4" width="1919.155" height="8.124" transform="translate(0 143.681)"/>
        <rect id="Rectangle_12" data-name="Rectangle 12" class="cls-4" width="1919.155" height="8.124" transform="translate(0 287.425)"/>
        <rect id="Rectangle_13" data-name="Rectangle 13" class="cls-4" width="1919.155" height="8.124" transform="translate(0 431.17)"/>
        <rect id="Rectangle_14" data-name="Rectangle 14" class="cls-4" width="1919.155" height="8.124" transform="translate(0 574.915)"/>
        <rect id="Rectangle_15" data-name="Rectangle 15" class="cls-4" width="1919.155" height="8.124" transform="translate(0 718.595)"/>
        <rect id="Rectangle_16" data-name="Rectangle 16" class="cls-4" width="1919.155" height="8.124" transform="translate(0 862.34)"/>
        <rect id="Rectangle_17" data-name="Rectangle 17" class="cls-4" width="1919.155" height="8.124" transform="translate(0 1006.085)"/>
      </g>
    </g>
  </g>
</svg>
