<svg xmlns="http://www.w3.org/2000/svg" viewBox="0 0 166.383 31.142">
  <defs>
    <style>
      .cls-1 {
        fill: #8e5644;
      }
    </style>
  </defs>
  <g id="Group_41" data-name="Group 41" transform="translate(-80.611)">
    <g id="Group_29" data-name="Group 29" transform="translate(122.163 7.654)">
      <g id="Group_27" data-name="Group 27">
        <path id="Path_241" data-name="Path 241" class="cls-1" d="M292.247,40.988A12.973,12.973,0,0,1,279.3,28.041,10.547,10.547,0,0,1,289.841,17.5a8.68,8.68,0,0,1,8.66,8.66,7.131,7.131,0,0,1-7.129,7.129,5.908,5.908,0,0,1-5.9-5.9,4.937,4.937,0,0,1,4.943-4.942,4.153,4.153,0,0,1,4.155,4.155h-2.056a2.129,2.129,0,0,0-2.1-2.1,2.912,2.912,0,0,0-2.887,2.887,3.855,3.855,0,0,0,3.849,3.849,5.077,5.077,0,0,0,5.074-5.074,6.627,6.627,0,0,0-6.6-6.6,8.493,8.493,0,0,0-8.485,8.485,10.92,10.92,0,0,0,10.891,10.891Z" transform="translate(-279.3 -17.5)"/>
      </g>
      <g id="Group_28" data-name="Group 28" transform="translate(8.966 5.861)">
        <circle id="Ellipse_13" data-name="Ellipse 13" class="cls-1" cx="2.099" cy="2.099" r="2.099" transform="translate(1.05 1.05)"/>
        <path id="Path_242" data-name="Path 242" class="cls-1" d="M302.949,37.2a3.149,3.149,0,1,1,3.149-3.149A3.136,3.136,0,0,1,302.949,37.2Zm0-4.243a1.093,1.093,0,1,0,1.093,1.093A1.083,1.083,0,0,0,302.949,32.956Z" transform="translate(-299.8 -30.9)"/>
      </g>
    </g>
    <g id="Group_30" data-name="Group 30" transform="translate(156.673)">
      <path id="Path_243" data-name="Path 243" class="cls-1" d="M372.459,20.426c0,8.31-7.129,9.71-7.129,9.71s-7.129-1.4-7.129-9.71S365.329,0,365.329,0,372.459,12.116,372.459,20.426Z" transform="translate(-358.2)"/>
    </g>
    <g id="Group_31" data-name="Group 31" transform="translate(146.919 14.609)">
      <path id="Path_244" data-name="Path 244" class="cls-1" d="M349.284,39.786a6.445,6.445,0,0,1,1.225,8.179,6.445,6.445,0,0,1-8.179-1.225c-4.024-4.024-6.43-13.34-6.43-13.34S345.26,35.762,349.284,39.786Z" transform="translate(-335.9 -33.4)"/>
    </g>
    <g id="Group_32" data-name="Group 32" transform="translate(101.981 5.642)">
      <path id="Path_245" data-name="Path 245" class="cls-1" d="M256.184,35.338c-6.123-4.593-5.6-9.185-5.6-9.185a9.805,9.805,0,0,1,2.056-5.6s-7.129,1.006-7.129,7.654c0,0-8.66-4.068-7.654-9.185.962-4.768,6.648-3.587,6.648,0,0,0,.525-6.123-5.6-6.123s-8.179,8.573-2.056,13.778C243.456,32.276,256.184,35.338,256.184,35.338Z" transform="translate(-233.16 -12.9)"/>
    </g>
    <g id="Group_33" data-name="Group 33" transform="translate(80.611 15.833)">
      <path id="Path_246" data-name="Path 246" class="cls-1" d="M228.695,48.447h-35.21s-9.185,0-9.185-6.123c0-4.068,2.537-6.123,6.123-6.123,0,0,4.068,0,4.068,3.587s-5.117,4.068-6.123,2.056c0,0-2.056,4.068,5.6,4.068h6.648A5.664,5.664,0,0,1,198.6,41.8s8.179,4.593,15.309,4.593h9.71Z" transform="translate(-184.3 -36.2)"/>
    </g>
    <g id="Group_37" data-name="Group 37" transform="translate(186.24 7.654)">
      <g id="Group_35" data-name="Group 35">
        <path id="Path_247" data-name="Path 247" class="cls-1" d="M432.055,40.988V38.932a10.92,10.92,0,0,0,10.891-10.891,8.493,8.493,0,0,0-8.485-8.485,6.627,6.627,0,0,0-6.6,6.6,5.077,5.077,0,0,0,5.074,5.074,3.855,3.855,0,0,0,3.849-3.849,2.912,2.912,0,0,0-2.887-2.887,2.129,2.129,0,0,0-2.1,2.1h-2.056a4.153,4.153,0,0,1,4.155-4.155,4.937,4.937,0,0,1,4.943,4.942,5.908,5.908,0,0,1-5.9,5.9A7.131,7.131,0,0,1,425.8,26.16a8.68,8.68,0,0,1,8.66-8.66A10.547,10.547,0,0,1,445,28.041,12.973,12.973,0,0,1,432.055,40.988Z" transform="translate(-425.8 -17.5)"/>
      </g>
      <g id="Group_36" data-name="Group 36" transform="translate(3.936 5.861)">
        <circle id="Ellipse_14" data-name="Ellipse 14" class="cls-1" cx="2.099" cy="2.099" r="2.099" transform="translate(1.05 1.05)"/>
        <path id="Path_248" data-name="Path 248" class="cls-1" d="M437.949,37.2a3.149,3.149,0,1,1,3.149-3.149A3.136,3.136,0,0,1,437.949,37.2Zm0-4.243a1.093,1.093,0,1,0,1.093,1.093A1.083,1.083,0,0,0,437.949,32.956Z" transform="translate(-434.8 -30.9)"/>
      </g>
    </g>
    <g id="Group_38" data-name="Group 38" transform="translate(165.129 14.609)">
      <path id="Path_249" data-name="Path 249" class="cls-1" d="M379.706,39.786a6.445,6.445,0,0,0-1.225,8.179,6.445,6.445,0,0,0,8.179-1.225c4.024-4.024,6.43-13.34,6.43-13.34S383.73,35.762,379.706,39.786Z" transform="translate(-377.534 -33.4)"/>
    </g>
    <g id="Group_39" data-name="Group 39" transform="translate(202.598 5.599)">
      <path id="Path_250" data-name="Path 250" class="cls-1" d="M463.2,35.282c6.123-4.593,5.6-9.185,5.6-9.185a9.805,9.805,0,0,0-2.056-5.6s7.129,1.006,7.129,7.654c0,0,8.66-4.068,7.654-9.185-.919-4.768-6.6-3.587-6.6-.044,0,0-.525-6.123,5.6-6.123s8.179,8.573,2.056,13.778C475.928,32.22,463.2,35.282,463.2,35.282Z" transform="translate(-463.2 -12.8)"/>
    </g>
    <g id="Group_40" data-name="Group 40" transform="translate(202.598 15.833)">
      <path id="Path_251" data-name="Path 251" class="cls-1" d="M463.2,48.447h35.21s9.185,0,9.185-6.123c0-4.068-2.537-6.123-6.123-6.123,0,0-4.068,0-4.068,3.587s5.117,4.068,6.123,2.056c0,0,2.056,4.068-5.6,4.068H491.28a5.492,5.492,0,0,0,2.056-4.068s-8.179,4.593-15.309,4.593h-9.71Z" transform="translate(-463.2 -36.2)"/>
    </g>
  </g>
</svg>
