<svg xmlns="http://www.w3.org/2000/svg" viewBox="0 0 486.72 320.05"><title>Map</title><path d="M486.72,3.54H409.09L407,19.8,404.2,2.64h0L402.66,24l-.39,5.34-1.22-8.6L398.59,3.54H366.5l-4,12.7-1.63-3.17-4.91-9.53h-11V32.08L339.14,3.54h-30l-2.7,10.59-.81-10.59H233.92l-3.69,14.73L227.6,3.54h-7.89l-2.17,24.15L214.45,3.54h-6.84L205,14.13l-2.59-11h-33l-57,6.26-4.19,20Q106.62,15.55,105,1.76l-5.55,8.52L95.9,26.93Q94,14.18,92.17,1.43L61.25,7.51h0L.1,2.17,0,72.85l8.64,2.08L0,78.12V85l33.37,6.94L0,93.77v41.91l16.5,4.68L0,143.25v5.2l26.62,4.15L0,153.4v32.3l12.85,1.39L0,195.17V208.8l26.62,3.93L0,215.64V319.87H80.44l8.71-18v18L94,292.57l2.41,27.3h34l4-15.58L138,319.87h50.71l5.91-32.06v32.06h3.52l3.41-10.72,4.28,10.07,2,.21,2.83-18.15,2.67,18.15h33.55l5.63-6.75.45,6.75,85.29.44,1.72-9.36,4.72,9.36H349l2.93-13.72,2.07,13.9h78.13l2.32-10.82,3.07,10.82h49.2v-57l-8.16-2.44-8.41-1.79h16.57v-9.69l-9.21-1.12,9.21-2.61V215.21l-21.83-2.73,21.83-3.27V176.84l-13.16-4.47,13.16-2.92h-27.8l27.8-4.74V129.28l-10.61-2.7,10.61-1.9-1.54-4.28-7.28-1.51L467,116.63h19.73V98.81l-13.06-1.74,13.06-2.73V72.66l-11.31-3.55L486.72,67V57.33l-24.28,2.75,24.28-6.71Z" style="fill:#8e5644"/><path d="M482.2,260v-.73l-16.42-4.82H482.2V244.9l-9.12-1.1,9.12-2.56V211.57l-21.63-2.69,21.63-3.21V174.58l-13-4.38,13-2.87H454.66l27.54-4.66V127.89l-10.51-2.65,10.51-1.87-1.53-4.19-18-3.71H482.2V98.27l-12.94-1.71,12.94-2.68V72.59L471,69.11,482.2,67V57.81l-24.06,2.62,24.06-6.37V.05H406l-2.77,20.73L400.27.05l-1.75,29.76L394.08.05H364.14L359.09,17.4,350.22.05h-8.6l.07,32.38L335.19.05H307.27l-3.7,15.35L302.33.05H232.5L228,19.32,224.84.05h-6.73l-2.65,28.21L211.69.05H207L203,15.4,199.56.05H113.88c-1.85,8.2-4.9,21.56-6.74,29.76-.73-8.53-1.58-21.22-2.31-29.76-4.24-.09-1.71,0-6.16,0-1,7.82-2.75,19.69-3.74,27.52C94,19.82,93.59,7.77,92.67.05,61.94-.06,30.72.16,0,.05V72.42l8.56,2L0,77.59v6.73l33.06,6.82L0,93v39.84l16.35,4.6L0,140.32v5.1l26.37,4.08L0,150.27v31.34L12.73,183,0,190.9v12.77l26.37,3.84L0,210.35V313.83H79.92l8.42-17.12-1,17.12,5.83-26.22,2.73,26.22h33.48l3.89-14.77,4.37,14.77h49.46l4.87-26,1.1,26h3.43l3.25-10,5.1,10h2.3l1.66-17.72,2.65,17.72h33.25l5.57-6.59,1.34,6.59h83.7l1.62-8.71,4.46,8.71h4.54l2.81-13,2,13h77.59l2.17-9.95,3,9.95h48.75Z" style="fill:#f4d2ab"/></svg>